<mxfile host="app.diagrams.net" agent="Mozilla/5.0 (Macintosh; Intel Mac OS X 10_15_7) AppleWebKit/537.36 (KHTML, like Gecko) Chrome/135.0.0.0 Safari/537.36" version="27.0.6">
  <diagram name="Page-1" id="LzGsbBh8AFjzBnegC7-E">
    <mxGraphModel dx="1018" dy="661" grid="1" gridSize="10" guides="1" tooltips="1" connect="1" arrows="1" fold="1" page="1" pageScale="1" pageWidth="827" pageHeight="1169" math="0" shadow="0">
      <root>
        <mxCell id="0" />
        <mxCell id="1" parent="0" />
        <mxCell id="VL0wPU8FUZYuOnX8mVRh-3" style="edgeStyle=orthogonalEdgeStyle;rounded=0;orthogonalLoop=1;jettySize=auto;html=1;" edge="1" parent="1" source="VL0wPU8FUZYuOnX8mVRh-1" target="VL0wPU8FUZYuOnX8mVRh-2">
          <mxGeometry relative="1" as="geometry" />
        </mxCell>
        <mxCell id="VL0wPU8FUZYuOnX8mVRh-1" value="START&lt;div&gt;(wywołanie&lt;/div&gt;&lt;div&gt;funkcji)&lt;/div&gt;" style="ellipse;whiteSpace=wrap;html=1;aspect=fixed;" vertex="1" parent="1">
          <mxGeometry x="160" y="40" width="80" height="80" as="geometry" />
        </mxCell>
        <mxCell id="VL0wPU8FUZYuOnX8mVRh-5" style="edgeStyle=orthogonalEdgeStyle;rounded=0;orthogonalLoop=1;jettySize=auto;html=1;" edge="1" parent="1" source="VL0wPU8FUZYuOnX8mVRh-2" target="VL0wPU8FUZYuOnX8mVRh-4">
          <mxGeometry relative="1" as="geometry" />
        </mxCell>
        <mxCell id="VL0wPU8FUZYuOnX8mVRh-2" value="Deserializacja" style="rounded=1;whiteSpace=wrap;html=1;fillColor=#fff2cc;strokeColor=#d6b656;fontSize=16;" vertex="1" parent="1">
          <mxGeometry x="140" y="150" width="120" height="60" as="geometry" />
        </mxCell>
        <mxCell id="VL0wPU8FUZYuOnX8mVRh-7" style="edgeStyle=orthogonalEdgeStyle;rounded=0;orthogonalLoop=1;jettySize=auto;html=1;entryX=0;entryY=0.5;entryDx=0;entryDy=0;" edge="1" parent="1" source="VL0wPU8FUZYuOnX8mVRh-4" target="VL0wPU8FUZYuOnX8mVRh-6">
          <mxGeometry relative="1" as="geometry" />
        </mxCell>
        <mxCell id="VL0wPU8FUZYuOnX8mVRh-4" value="Walidacja" style="rounded=1;whiteSpace=wrap;html=1;fillColor=#d5e8d4;strokeColor=#82b366;fontSize=16;" vertex="1" parent="1">
          <mxGeometry x="300" y="150" width="120" height="60" as="geometry" />
        </mxCell>
        <mxCell id="VL0wPU8FUZYuOnX8mVRh-9" style="edgeStyle=orthogonalEdgeStyle;rounded=0;orthogonalLoop=1;jettySize=auto;html=1;entryX=0;entryY=0.5;entryDx=0;entryDy=0;" edge="1" parent="1" source="VL0wPU8FUZYuOnX8mVRh-6" target="VL0wPU8FUZYuOnX8mVRh-8">
          <mxGeometry relative="1" as="geometry" />
        </mxCell>
        <mxCell id="VL0wPU8FUZYuOnX8mVRh-6" value="Mnożenie macierzy" style="rounded=1;whiteSpace=wrap;html=1;fillColor=#dae8fc;strokeColor=#6c8ebf;fontSize=16;" vertex="1" parent="1">
          <mxGeometry x="460" y="150" width="120" height="60" as="geometry" />
        </mxCell>
        <mxCell id="VL0wPU8FUZYuOnX8mVRh-11" style="edgeStyle=orthogonalEdgeStyle;rounded=0;orthogonalLoop=1;jettySize=auto;html=1;entryX=0.5;entryY=1;entryDx=0;entryDy=0;" edge="1" parent="1" source="VL0wPU8FUZYuOnX8mVRh-8" target="VL0wPU8FUZYuOnX8mVRh-10">
          <mxGeometry relative="1" as="geometry" />
        </mxCell>
        <mxCell id="VL0wPU8FUZYuOnX8mVRh-8" value="Serializacja" style="rounded=1;whiteSpace=wrap;html=1;fillColor=#fff2cc;strokeColor=#d6b656;fontSize=16;" vertex="1" parent="1">
          <mxGeometry x="620" y="150" width="120" height="60" as="geometry" />
        </mxCell>
        <mxCell id="VL0wPU8FUZYuOnX8mVRh-10" value="STOP&lt;div&gt;(zwrócenie&lt;/div&gt;&lt;div&gt;wyniku)&lt;/div&gt;" style="ellipse;whiteSpace=wrap;html=1;aspect=fixed;" vertex="1" parent="1">
          <mxGeometry x="640" y="40" width="80" height="80" as="geometry" />
        </mxCell>
      </root>
    </mxGraphModel>
  </diagram>
</mxfile>
